HIERARCHY
ROOT simHips
{
  OFFSET 0.341758 90.3769 0.264803
  CHANNELS 6 Xposition Yposition Zposition Zrotation Xrotation Yrotation
  JOINT simSpine
  {
    OFFSET -0.000355721 21.3001 -0.016921
    CHANNELS 3 Zrotation Xrotation Yrotation
    JOINT simLeftArm
    {
      OFFSET 13.5181 21.3012 0
      CHANNELS 3 Zrotation Xrotation Yrotation
      JOINT simLeftForeArm
      {
        OFFSET 24.5783 0 0
        CHANNELS 3 Zrotation Xrotation Yrotation
        JOINT simLeftHand
        {
          OFFSET 24.5783 0 0
          CHANNELS 3 Zrotation Xrotation Yrotation
          End Site
          {
            OFFSET 7.32568 1.52588e-05 0.0169305
          }
        }
      }
    }
    JOINT simHead
    {
      OFFSET 0 27.4458 -0.00489235
      CHANNELS 3 Zrotation Xrotation Yrotation
      End Site
      {
        OFFSET 0 0 0
      }
    }
    JOINT simRightArm
    {
      OFFSET -13.5174 21.3012 0
      CHANNELS 3 Zrotation Xrotation Yrotation
      JOINT simRightForeArm
      {
        OFFSET -24.5783 0 0
        CHANNELS 3 Zrotation Xrotation Yrotation
        JOINT simRightHand
        {
          OFFSET -24.5783 0 0
          CHANNELS 3 Zrotation Xrotation Yrotation
          End Site
          {
            OFFSET -7.32568 1.52588e-05 0.0169305
          }
        }
      }
    }
  }
  JOINT simRightUpLeg
  {
    OFFSET -8.44614 -9.41038 0.835684
    CHANNELS 3 Zrotation Xrotation Yrotation
    JOINT simRightLeg
    {
      OFFSET 0 -40.9639 0
      CHANNELS 3 Zrotation Xrotation Yrotation
      JOINT simRightFoot
      {
        OFFSET 0 -40.9639 0
        CHANNELS 3 Zrotation Xrotation Yrotation
        End Site
        {
          OFFSET 0.50614 -9.67405 14.6709
        }
      }
    }
  }
  JOINT simLeftUpLeg
  {
    OFFSET 8.44614 -9.41038 0.835684
    CHANNELS 3 Zrotation Xrotation Yrotation
    JOINT simLeftLeg
    {
      OFFSET 0 -40.9639 0
      CHANNELS 3 Zrotation Xrotation Yrotation
      JOINT simLeftFoot
      {
        OFFSET 0 -40.9639 0
        CHANNELS 3 Zrotation Xrotation Yrotation
        End Site
        {
          OFFSET -0.50614 -9.67405 14.6709
        }
      }
    }
  }
}
MOTION
Frames:	11
Frame Time:	0.0333333
0.341758 90.3769 0.264803 1.62755 7.8774 -35.6877 4.77174 4.4413 3.98139 -54.8123 -17.8553 -32.994 0.00633121 -8.41533e-06 -106.007 4.6462 14.7556 0.203885 -6.25428 4.36277 26.3229 56.4028 22.8622 57.9172 -0.000212539 -5.64819e-06 111.725 0.365503 2.31486 10.5387 -17.9382 -13.3545 -16.9123 -4.03387 44.2366 -4.39123 23.0393 -13.9572 2.11446 29.3659 -40.1363 25.0153 -3.27562 44.5517 -2.67415 -8.3711 -6.33016 -0.353495 
0.109888 90.6169 0.251217 2.0919 7.81881 -35.8593 4.67856 4.41076 3.98292 -54.5248 -18.331 -32.6071 -0.00604363 -8.28169e-06 -105.746 5.00735 16.0282 -1.32604 -6.45444 4.01539 26.9182 54.95 23.9396 59.0036 -0.000212781 -4.99945e-06 109.126 -1.16656 1.60976 10.3935 -17.8579 -13.377 -16.5025 -4.32733 43.6654 -4.32699 23.0551 -13.8583 1.69481 28.7436 -39.7081 24.7905 -3.20099 43.4913 -2.45249 -8.55387 -5.89916 -0.413882 
-0.139236 90.9237 0.160062 2.62138 7.58866 -36.2077 4.40993 4.40721 4.09995 -53.9887 -18.6212 -32.0192 -0.00587563 -7.72297e-06 -104.659 5.98516 19.2464 -5.29088 -6.47672 3.79821 27.2334 51.9822 25.3876 60.4594 -0.000213088 -4.00658e-06 105.223 -4.47538 0.344405 9.99022 -17.9351 -13.3542 -16.1539 -4.62639 43.0185 -3.4617 22.7946 -13.9248 0.693095 27.8108 -38.9738 24.3238 -3.01601 42.0346 -2.47605 -8.90554 -5.41482 0.0253263 
-0.419886 91.3413 -0.0368398 3.34974 7.31096 -36.569 3.93862 4.38596 4.28449 -52.9058 -18.2956 -31.7197 0.014724 -6.64812e-06 -102.583 8.86926 23.1776 -11.2972 -6.11914 3.5293 27.0255 47.0324 27.023 62.3394 -0.000213381 -2.70969e-06 100.229 -9.27896 -1.64826 8.94658 -18.3172 -13.3585 -16.0487 -4.65732 42.2145 -2.07104 22.1715 -14.042 -0.825864 26.4824 -38.082 23.6264 -2.75055 39.897 -2.15903 -9.30957 -4.45241 0.310416 
-0.742693 91.9034 -0.297045 4.47508 7.25342 -37.1117 3.29339 4.24883 4.46524 -50.0098 -16.3301 -30.9525 0.00151019 -5.08059e-06 -99.5833 14.9373 26.0386 -18.3282 -5.35183 2.84567 26.2511 39.4136 29.0349 65.3202 -0.00021358 -1.14578e-06 94.3064 -15.2767 -3.51113 7.38499 -19.0287 -13.7103 -16.2151 -4.29222 41.1248 -1.4489 21.3897 -13.6575 -1.67695 24.9694 -37.128 22.9496 -2.55801 36.839 -0.797233 -9.6577 -2.82633 -0.307018 
-1.10221 92.5841 -0.487356 6.10125 7.64591 -38.7453 2.57827 3.89997 4.63107 -43.9523 -10.9264 -27.0609 0.0063955 -2.93935e-06 -95.5271 24.102 27.0914 -25.1857 -4.49408 1.45833 25.4309 27.7588 31.8299 71.5621 -0.00021361 6.27606e-07 87.6427 -22.181 -3.18965 6.51133 -19.8863 -14.949 -16.4016 -3.71987 39.6641 -2.72602 20.6849 -12.1992 -0.258343 23.9345 -36.0745 22.7938 -2.60385 33.1858 1.83876 -9.99778 -0.85832 -1.367 
-1.48035 93.4282 -0.478776 8.02223 8.37053 -42.9087 1.93024 3.35301 4.86993 -37.1924 -0.236808 -17.7943 0.0116774 6.05734e-07 -88.8627 34.0535 27.4834 -31.2576 -4.04536 -0.416865 25.583 10.2738 34.0302 84.1489 -0.000213436 2.38222e-06 81.0182 -29.5534 0.639679 7.86457 -21.1728 -17.3717 -16.324 -3.14618 37.5353 0.332428 19.4493 -8.22215 2.6955 23.802 -33.8801 23.2899 -2.70621 28.6072 4.76665 -11.2208 0.431992 -0.555805 
-1.83942 94.6493 -0.217995 9.67589 8.92307 -50.4524 1.47535 2.76545 5.31409 -38.1475 13.4523 -3.50191 4.92803e-05 7.00801e-06 -76.7242 40.3834 28.9375 -36.003 -4.23397 -2.02476 27.5636 -10.6924 31.0944 101.854 -0.000213175 3.67074e-06 76.0801 -36.4358 5.89064 11.2935 -21.6439 -19.521 -16.1415 -2.33697 32.3354 8.02012 17.4213 -2.55722 3.73949 24.3699 -29.6346 23.7082 -2.61713 23.1995 7.25157 -12.7065 1.17573 4.40665 
-2.20001 96.3248 0.100689 10.6814 8.41009 -60.4655 0.88823 2.33787 5.97252 -50.3868 20.182 13.3179 0.0027038 1.62302e-05 -57.8708 39.047 32.0232 -38.2446 -4.81512 -2.61721 31.3423 -25.8132 22.298 116.218 -0.000213041 4.1756e-06 74.1183 -39.9005 7.49793 14.0887 -20.7107 -21.2815 -16.4768 -0.977743 28.8789 10.5565 14.3908 5.48275 1.58803 23.3562 -20.7634 22.1944 -2.37751 12.5022 9.01846 -13.6429 4.07043 12.442 
-2.44036 97.5036 0.509975 10.6718 6.71582 -70.5259 0.349836 2.16703 6.88418 -62.3834 13.5485 26.3377 0.00171092 2.4719e-05 -35.9048 30.2796 35.561 -36.6875 -5.38117 -2.05192 35.7499 -30.2209 15.1504 123.048 -0.000213045 4.15841e-06 74.1854 -36.9765 1.96919 13.4792 -18.1505 -20.6391 -17.8008 0.770954 30.6886 -2.09709 12.4048 0.239255 -7.62167 23.7673 -19.0364 20.3961 -1.96102 17.5615 10.4156 -11.1933 3.8929 17.4799 
-2.47664 97.3142 1.06286 9.93988 4.37842 -77.9843 0.078295 2.16956 7.8269 -63.5323 -1.71639 35.5214 5.12254e-05 2.88815e-05 -18.8463 19.7777 37.0949 -31.0285 -5.70451 -0.842709 39.1852 -25.3546 15.3639 122.772 -0.000212957 4.45763e-06 73.0142 -30.4125 -9.20549 10.3475 -19.5794 -19.2574 -20.8264 2.85967 37.2141 -8.72641 11.5344 -2.44633 -12.9545 25.2767 -26.6383 18.8189 -1.83155 36.8123 10.4287 -6.19424 2.01417 15.8039 
